<svg width="36" height="29" viewBox="0 0 36 29" fill="none" xmlns="http://www.w3.org/2000/svg">
<path d="M31.6667 24.7499H28.2501V9.802L18.0001 16.2083L7.75008 9.802V24.7499H4.33341V4.24992H6.38341L18.0001 11.5103L29.6167 4.24992H31.6667M31.6667 0.833252H4.33341C2.43716 0.833252 0.916748 2.35367 0.916748 4.24992V24.7499C0.916748 25.6561 1.27672 26.5251 1.91747 27.1659C2.55822 27.8066 3.42726 28.1666 4.33341 28.1666H31.6667C32.5729 28.1666 33.4419 27.8066 34.0827 27.1659C34.7234 26.5251 35.0834 25.6561 35.0834 24.7499V4.24992C35.0834 3.34376 34.7234 2.47472 34.0827 1.83397C33.4419 1.19322 32.5729 0.833252 31.6667 0.833252Z" fill="white"/>
</svg>
