<svg width="219" height="219" viewBox="0 0 219 219" fill="none" xmlns="http://www.w3.org/2000/svg">
<path d="M215.373 76.0854L112.717 21.3354C111.726 20.8082 110.622 20.5324 109.5 20.5324C108.378 20.5324 107.274 20.8082 106.283 21.3354L3.62719 76.0854C2.53222 76.669 1.6165 77.5392 0.977969 78.603C0.339442 79.6669 0.00213623 80.8843 0.00213623 82.125C0.00213623 83.3658 0.339442 84.5832 0.977969 85.647C1.6165 86.7109 2.53222 87.5811 3.62719 88.1646L27.375 100.834V142.256C27.3679 145.618 28.6051 148.863 30.8482 151.367C42.0548 163.848 67.1628 184.781 109.5 184.781C123.538 184.897 137.471 182.355 150.562 177.287V205.313C150.562 207.128 151.284 208.868 152.567 210.152C153.85 211.435 155.591 212.156 157.406 212.156C159.221 212.156 160.962 211.435 162.246 210.152C163.529 208.868 164.25 207.128 164.25 205.313V170.675C173.174 165.523 181.239 159.008 188.152 151.367C190.395 148.863 191.632 145.618 191.625 142.256V100.834L215.373 88.1646C216.468 87.5811 217.383 86.7109 218.022 85.647C218.661 84.5832 218.998 83.3658 218.998 82.125C218.998 80.8843 218.661 79.6669 218.022 78.603C217.383 77.5392 216.468 76.669 215.373 76.0854ZM109.5 171.094C72.4839 171.094 50.7122 153.009 41.0625 142.256V108.131L106.283 142.915C107.274 143.442 108.378 143.718 109.5 143.718C110.622 143.718 111.726 143.442 112.717 142.915L150.562 122.734V162.377C139.784 167.407 126.199 171.094 109.5 171.094ZM177.938 142.222C173.835 146.774 169.245 150.862 164.25 154.412V115.428L177.938 108.131V142.222ZM160.828 101.749L160.64 101.638L112.734 76.0854C111.135 75.269 109.28 75.1132 107.568 75.6514C105.856 76.1897 104.424 77.379 103.58 78.9631C102.736 80.5472 102.549 82.3994 103.058 84.1205C103.567 85.8416 104.731 87.2939 106.301 88.1646L146.285 109.5L109.5 129.116L21.3867 82.125L109.5 35.1341L197.613 82.125L160.828 101.749Z" fill="#E60012"/>
</svg>
