<svg width="1440" height="1400" viewBox="0 0 1440 1400" fill="none" xmlns="http://www.w3.org/2000/svg">
<line x1="75.5815" y1="1.83588e-08" x2="75.5815" y2="1400" stroke="black" stroke-opacity="0.25"/>
<line x1="122.729" y1="1.83588e-08" x2="122.729" y2="1400" stroke="black" stroke-opacity="0.25"/>
<line x1="169.876" y1="1.83588e-08" x2="169.876" y2="1400" stroke="black" stroke-opacity="0.25"/>
<line x1="217.024" y1="1.83588e-08" x2="217.024" y2="1400" stroke="black" stroke-opacity="0.25"/>
<line x1="264.172" y1="1.83588e-08" x2="264.171" y2="1400" stroke="black" stroke-opacity="0.25"/>
<line x1="311.319" y1="1.83588e-08" x2="311.319" y2="1400" stroke="black" stroke-opacity="0.25"/>
<line x1="358.466" y1="1.83588e-08" x2="358.466" y2="1400" stroke="black" stroke-opacity="0.25"/>
<line x1="405.614" y1="1.83588e-08" x2="405.614" y2="1400" stroke="black" stroke-opacity="0.25"/>
<line x1="452.761" y1="1.83588e-08" x2="452.761" y2="1400" stroke="black" stroke-opacity="0.25"/>
<line x1="499.909" y1="1.83588e-08" x2="499.909" y2="1400" stroke="black" stroke-opacity="0.25"/>
<line x1="547.056" y1="1.83588e-08" x2="547.056" y2="1400" stroke="black" stroke-opacity="0.25"/>
<line x1="594.204" y1="1.83588e-08" x2="594.204" y2="1400" stroke="black" stroke-opacity="0.25"/>
<line x1="641.351" y1="1.83588e-08" x2="641.351" y2="1400" stroke="black" stroke-opacity="0.25"/>
<line x1="688.498" y1="1.83588e-08" x2="688.498" y2="1400" stroke="black" stroke-opacity="0.25"/>
<line x1="735.646" y1="1.83588e-08" x2="735.646" y2="1400" stroke="black" stroke-opacity="0.25"/>
<line x1="782.793" y1="1.83588e-08" x2="782.793" y2="1400" stroke="black" stroke-opacity="0.25"/>
<line x1="829.941" y1="1.83588e-08" x2="829.94" y2="1400" stroke="black" stroke-opacity="0.25"/>
<line x1="877.088" y1="1.83588e-08" x2="877.088" y2="1400" stroke="black" stroke-opacity="0.25"/>
<line x1="924.235" y1="1.83588e-08" x2="924.235" y2="1400" stroke="black" stroke-opacity="0.25"/>
<line x1="971.383" y1="1.83588e-08" x2="971.383" y2="1400" stroke="black" stroke-opacity="0.25"/>
<line x1="1018.53" y1="1.83588e-08" x2="1018.53" y2="1400" stroke="black" stroke-opacity="0.25"/>
<line x1="1065.68" y1="1.83588e-08" x2="1065.68" y2="1400" stroke="black" stroke-opacity="0.25"/>
<line x1="1112.83" y1="1.83588e-08" x2="1112.83" y2="1400" stroke="black" stroke-opacity="0.25"/>
<line x1="1159.97" y1="1.83588e-08" x2="1159.97" y2="1400" stroke="black" stroke-opacity="0.25"/>
<line x1="1207.12" y1="1.83588e-08" x2="1207.12" y2="1400" stroke="black" stroke-opacity="0.25"/>
<line x1="1254.27" y1="1.83588e-08" x2="1254.27" y2="1400" stroke="black" stroke-opacity="0.25"/>
<line x1="1301.42" y1="1.83588e-08" x2="1301.41" y2="1400" stroke="black" stroke-opacity="0.25"/>
<line x1="1348.56" y1="1.83588e-08" x2="1348.56" y2="1400" stroke="black" stroke-opacity="0.25"/>
<line x1="1395.71" y1="1.83588e-08" x2="1395.71" y2="1400" stroke="black" stroke-opacity="0.25"/>
<line x1="1440" y1="107.37" x2="-31" y2="107.37" stroke="black" stroke-opacity="0.25"/>
<line x1="1440" y1="150.118" x2="-31" y2="150.118" stroke="black" stroke-opacity="0.25"/>
<line x1="1440" y1="192.866" x2="-31" y2="192.866" stroke="black" stroke-opacity="0.25"/>
<line x1="1440" y1="235.615" x2="-31" y2="235.614" stroke="black" stroke-opacity="0.25"/>
<line x1="1440" y1="278.363" x2="-31" y2="278.362" stroke="black" stroke-opacity="0.25"/>
<line x1="1440" y1="321.111" x2="-31" y2="321.111" stroke="black" stroke-opacity="0.25"/>
<line x1="1440" y1="363.859" x2="-31" y2="363.859" stroke="black" stroke-opacity="0.25"/>
<line x1="1440" y1="406.607" x2="-31" y2="406.607" stroke="black" stroke-opacity="0.25"/>
<line x1="1440" y1="449.355" x2="-31" y2="449.355" stroke="black" stroke-opacity="0.25"/>
<line x1="1440" y1="492.103" x2="-31" y2="492.103" stroke="black" stroke-opacity="0.25"/>
<line x1="1440" y1="534.851" x2="-31" y2="534.851" stroke="black" stroke-opacity="0.25"/>
<line x1="1440" y1="577.599" x2="-31" y2="577.599" stroke="black" stroke-opacity="0.25"/>
<line x1="1440" y1="620.347" x2="-31" y2="620.347" stroke="black" stroke-opacity="0.25"/>
<line x1="1440" y1="663.095" x2="-31" y2="663.095" stroke="black" stroke-opacity="0.25"/>
<line x1="1440" y1="705.844" x2="-31" y2="705.844" stroke="black" stroke-opacity="0.25"/>
<line x1="1440" y1="748.592" x2="-31" y2="748.591" stroke="black" stroke-opacity="0.25"/>
<line x1="1440" y1="791.34" x2="-31" y2="791.339" stroke="black" stroke-opacity="0.25"/>
<line x1="1440" y1="834.088" x2="-31" y2="834.088" stroke="black" stroke-opacity="0.25"/>
<line x1="1440" y1="876.836" x2="-31" y2="876.836" stroke="black" stroke-opacity="0.25"/>
<line x1="1440" y1="919.584" x2="-31" y2="919.584" stroke="black" stroke-opacity="0.25"/>
<line x1="1440" y1="962.332" x2="-31" y2="962.332" stroke="black" stroke-opacity="0.25"/>
<line x1="1440" y1="1005.08" x2="-31" y2="1005.08" stroke="black" stroke-opacity="0.25"/>
<line x1="1440" y1="1047.83" x2="-31" y2="1047.83" stroke="black" stroke-opacity="0.25"/>
<line x1="1440" y1="1090.58" x2="-31" y2="1090.58" stroke="black" stroke-opacity="0.25"/>
<line x1="1440" y1="1133.32" x2="-31" y2="1133.32" stroke="black" stroke-opacity="0.25"/>
<line x1="1440" y1="1176.07" x2="-31" y2="1176.07" stroke="black" stroke-opacity="0.25"/>
<line x1="1440" y1="1218.82" x2="-31" y2="1218.82" stroke="black" stroke-opacity="0.25"/>
<line x1="1440" y1="1261.57" x2="-31" y2="1261.57" stroke="black" stroke-opacity="0.25"/>
<line x1="1440" y1="1304.32" x2="-31" y2="1304.32" stroke="black" stroke-opacity="0.25"/>
</svg>
