<svg width="22" height="22" viewBox="0 0 22 22" fill="none" xmlns="http://www.w3.org/2000/svg">
<path d="M11.0001 7.6154C9.13645 7.6154 7.61555 9.1363 7.61555 11C7.61555 12.8636 9.13645 14.3845 11.0001 14.3845C12.8638 14.3845 14.3847 12.8636 14.3847 11C14.3847 9.1363 12.8638 7.6154 11.0001 7.6154ZM21.1513 11C21.1513 9.59841 21.164 8.20954 21.0853 6.81052C21.0066 5.18552 20.6359 3.74333 19.4476 2.55505C18.2568 1.36423 16.8171 0.996068 15.1921 0.917357C13.7906 0.838646 12.4017 0.851341 11.0027 0.851341C9.6011 0.851341 8.21223 0.838646 6.81321 0.917357C5.18821 0.996068 3.74602 1.36677 2.55774 2.55505C1.36692 3.74587 0.998753 5.18552 0.920042 6.81052C0.841331 8.21208 0.854027 9.60095 0.854027 11C0.854027 12.399 0.841331 13.7904 0.920042 15.1894C0.998753 16.8144 1.36946 18.2566 2.55774 19.4449C3.74856 20.6357 5.18821 21.0039 6.81321 21.0826C8.21477 21.1613 9.60363 21.1486 11.0027 21.1486C12.4042 21.1486 13.7931 21.1613 15.1921 21.0826C16.8171 21.0039 18.2593 20.6332 19.4476 19.4449C20.6384 18.2541 21.0066 16.8144 21.0853 15.1894C21.1665 13.7904 21.1513 12.4015 21.1513 11ZM11.0001 16.2076C8.11828 16.2076 5.7925 13.8818 5.7925 11C5.7925 8.11814 8.11828 5.79236 11.0001 5.79236C13.882 5.79236 16.2077 8.11814 16.2077 11C16.2077 13.8818 13.882 16.2076 11.0001 16.2076ZM16.421 6.79529C15.7482 6.79529 15.2048 6.25193 15.2048 5.57907C15.2048 4.90622 15.7482 4.36286 16.421 4.36286C17.0939 4.36286 17.6372 4.90622 17.6372 5.57907C17.6374 5.73885 17.6061 5.89709 17.5451 6.04474C17.484 6.19238 17.3944 6.32654 17.2815 6.43951C17.1685 6.55249 17.0343 6.64207 16.8867 6.70312C16.739 6.76417 16.5808 6.79549 16.421 6.79529Z" fill="white"/>
</svg>
