<svg width="36" height="35" viewBox="0 0 36 35" fill="none" xmlns="http://www.w3.org/2000/svg">
<path d="M10.8251 0.416748H25.1751C30.6418 0.416748 35.0834 4.85842 35.0834 10.3251V24.6751C35.0834 27.3029 34.0395 29.8232 32.1813 31.6813C30.3232 33.5395 27.8029 34.5834 25.1751 34.5834H10.8251C5.35842 34.5834 0.916748 30.1418 0.916748 24.6751V10.3251C0.916748 7.69723 1.96066 5.177 3.81883 3.31883C5.677 1.46066 8.19723 0.416748 10.8251 0.416748ZM10.4834 3.83341C8.85233 3.83341 7.28806 4.48136 6.13471 5.63471C4.98136 6.78806 4.33341 8.35233 4.33341 9.98341V25.0167C4.33341 28.4163 7.08383 31.1667 10.4834 31.1667H25.5167C27.1478 31.1667 28.7121 30.5188 29.8655 29.3655C31.0188 28.2121 31.6667 26.6478 31.6667 25.0167V9.98341C31.6667 6.58383 28.9163 3.83341 25.5167 3.83341H10.4834ZM26.9688 6.39592C27.5352 6.39592 28.0783 6.6209 28.4788 7.02136C28.8793 7.42183 29.1042 7.96498 29.1042 8.53133C29.1042 9.09768 28.8793 9.64083 28.4788 10.0413C28.0783 10.4418 27.5352 10.6667 26.9688 10.6667C26.4025 10.6667 25.8593 10.4418 25.4589 10.0413C25.0584 9.64083 24.8334 9.09768 24.8334 8.53133C24.8334 7.96498 25.0584 7.42183 25.4589 7.02136C25.8593 6.6209 26.4025 6.39592 26.9688 6.39592ZM18.0001 8.95842C20.2655 8.95842 22.4381 9.85834 24.04 11.4602C25.6418 13.0621 26.5417 15.2347 26.5417 17.5001C26.5417 19.7655 25.6418 21.9381 24.04 23.54C22.4381 25.1418 20.2655 26.0417 18.0001 26.0417C15.7347 26.0417 13.5621 25.1418 11.9602 23.54C10.3583 21.9381 9.45842 19.7655 9.45842 17.5001C9.45842 15.2347 10.3583 13.0621 11.9602 11.4602C13.5621 9.85834 15.7347 8.95842 18.0001 8.95842ZM18.0001 12.3751C16.6408 12.3751 15.3373 12.915 14.3762 13.8762C13.415 14.8373 12.8751 16.1408 12.8751 17.5001C12.8751 18.8593 13.415 20.1629 14.3762 21.124C15.3373 22.0851 16.6408 22.6251 18.0001 22.6251C19.3593 22.6251 20.6629 22.0851 21.624 21.124C22.5851 20.1629 23.1251 18.8593 23.1251 17.5001C23.1251 16.1408 22.5851 14.8373 21.624 13.8762C20.6629 12.915 19.3593 12.3751 18.0001 12.3751Z" fill="white"/>
</svg>
